<svg version="1.1" xmlns="http://www.w3.org/2000/svg" viewBox="0 0 1201.1197204589844 628" width="1201.1197204589844" height="628">
  <!-- svg-source:excalidraw -->
  
  <defs>
    <style class="style-fonts">
      @font-face {
        font-family: "Virgil";
        src: url("https://excalidraw.com/Virgil.woff2");
      }
      @font-face {
        font-family: "Cascadia";
        src: url("https://excalidraw.com/Cascadia.woff2");
      }
      @font-face {
        font-family: "Assistant";
        src: url("https://excalidraw.com/Assistant-Regular.woff2");
      }
    </style>
    
  </defs>
  <rect x="0" y="0" width="1201.1197204589844" height="628" fill="#ffffff"></rect><g stroke-linecap="round" transform="translate(122 92) rotate(0 352 263)"><path d="M32 0 C263.93 -0.05, 498.56 0.7, 672 0 C695.43 1.24, 700.95 14.03, 704 32 C701.46 189.73, 701.36 347.34, 704 494 C702.97 513.25, 695.65 525.64, 672 526 C423.32 523.07, 175.63 525.4, 32 526 C10.57 524.09, 2.26 515.81, 0 494 C0.67 390.56, 2.04 287.06, 0 32 C-1.31 7.35, 9.45 3.47, 32 0" stroke="none" stroke-width="0" fill="#ffec99"></path><path d="M32 0 C268.38 -0.73, 502.88 -1.07, 672 0 M32 0 C169.85 0.93, 308.49 1.08, 672 0 M672 0 C694.31 -0.95, 705.03 9.79, 704 32 M672 0 C694.01 -0.71, 704.47 9.89, 704 32 M704 32 C704.62 133.98, 704.49 235.29, 704 494 M704 32 C702.47 166.49, 703.14 300.92, 704 494 M704 494 C702.77 513.88, 693.68 524.69, 672 526 M704 494 C706.1 514.13, 691.62 527.59, 672 526 M672 526 C426.24 525.14, 180.4 524.96, 32 526 M672 526 C465.36 524.21, 259.02 524.43, 32 526 M32 526 C8.93 525.99, -0.45 513.55, 0 494 M32 526 C9.68 526.22, -1.71 516.31, 0 494 M0 494 C1.04 309.99, 1.27 125.56, 0 32 M0 494 C1.67 321.4, 2 148.38, 0 32 M0 32 C0.21 10.29, 11.55 1.01, 32 0 M0 32 C0.19 10.17, 12.16 1.74, 32 0" stroke="#1e1e1e" stroke-width="2" fill="none"></path></g><g transform="translate(373 10) rotate(0 97.95597076416016 22.5)"><text x="0" y="31.536" font-family="Virgil, Segoe UI Emoji" font-size="36px" fill="#1e1e1e" text-anchor="start" style="white-space: pre;" direction="ltr" dominant-baseline="alphabetic">Host config</text></g><g stroke-linecap="round" transform="translate(268 150) rotate(0 65 232)"><path d="M32 0 C48.48 3, 71.34 2.92, 98 0 C117.83 0.01, 132.61 10.52, 130 32 C132.52 152.87, 132.25 271.93, 130 432 C129.4 454.84, 116.36 461.66, 98 464 C80.27 460.96, 59.28 464.19, 32 464 C8.41 466.77, 2.49 456.59, 0 432 C-1.17 323.73, -4.26 219.76, 0 32 C0.79 10.52, 12.06 0.7, 32 0" stroke="none" stroke-width="0" fill="#ffc9c9"></path><path d="M32 0 C48.3 0.55, 61.62 1.06, 98 0 M32 0 C50.22 -0.9, 67.84 -0.77, 98 0 M98 0 C118.56 1.16, 130.24 10.62, 130 32 M98 0 C117.7 0.97, 131.85 9.28, 130 32 M130 32 C128.98 149.52, 129.07 266.71, 130 432 M130 32 C131.31 171.49, 131.34 312.08, 130 432 M130 432 C131.24 455.31, 119.16 463.44, 98 464 M130 432 C129.76 451.17, 118.65 464.03, 98 464 M98 464 C82.31 465.65, 62.59 465.56, 32 464 M98 464 C73.91 464.18, 51.17 464.11, 32 464 M32 464 C12.52 465.87, 1.9 455.08, 0 432 M32 464 C9.73 465.71, 1.44 455.36, 0 432 M0 432 C1.02 291.22, 1.34 148.59, 0 32 M0 432 C-1.75 329.46, -2.36 226.86, 0 32 M0 32 C0.77 12.08, 9.26 1.47, 32 0 M0 32 C-0.63 10, 8.97 -2.05, 32 0" stroke="#1e1e1e" stroke-width="2" fill="none"></path></g><g transform="translate(292.6100311279297 357) rotate(0 40.38996887207031 25)"><text x="40.38996887207031" y="17.52" font-family="Virgil, Segoe UI Emoji" font-size="20px" fill="#1e1e1e" text-anchor="middle" style="white-space: pre;" direction="ltr" dominant-baseline="alphabetic">Rpi4 #2</text><text x="40.38996887207031" y="42.519999999999996" font-family="Virgil, Segoe UI Emoji" font-size="20px" fill="#1e1e1e" text-anchor="middle" style="white-space: pre;" direction="ltr" dominant-baseline="alphabetic">Server</text></g><g stroke-linecap="round" transform="translate(406.5 140.5) rotate(0 63.5 236.5)"><path d="M31.75 0 C50.31 -2.74, 72.04 -2.83, 95.25 0 C115.72 -3.12, 126.02 9.15, 127 31.75 C128.1 163.71, 128.84 299.54, 127 441.25 C129.11 465.05, 116.76 473.18, 95.25 473 C80.98 476.56, 59.01 474.95, 31.75 473 C11.36 474.24, -0.11 462.95, 0 441.25 C0.95 288.42, 2.82 136.58, 0 31.75 C1.11 12.49, 11.95 -3.04, 31.75 0" stroke="none" stroke-width="0" fill="#ffc9c9"></path><path d="M31.75 0 C48.14 -0.52, 62.46 0.64, 95.25 0 M31.75 0 C45.98 -0.21, 63.04 -0.11, 95.25 0 M95.25 0 C117.67 -1.8, 128.65 11.51, 127 31.75 M95.25 0 C117.73 1.65, 126.25 12.77, 127 31.75 M127 31.75 C127.7 196.36, 129.33 358.19, 127 441.25 M127 31.75 C126.98 178.43, 126.43 325.83, 127 441.25 M127 441.25 C126.95 461.8, 115.28 473.92, 95.25 473 M127 441.25 C126.49 460.59, 115.47 474.76, 95.25 473 M95.25 473 C78.51 474.98, 59.04 474.78, 31.75 473 M95.25 473 C75.73 473.4, 54.4 473.66, 31.75 473 M31.75 473 C10.32 472.72, 1.44 463.91, 0 441.25 M31.75 473 C8.99 473.07, 1.8 461.26, 0 441.25 M0 441.25 C-2.27 309.92, -1.27 177.42, 0 31.75 M0 441.25 C-1.22 320.78, -0.48 200.44, 0 31.75 M0 31.75 C-0.63 12.51, 11.22 1.42, 31.75 0 M0 31.75 C2.25 9.82, 8.77 -0.52, 31.75 0" stroke="#1e1e1e" stroke-width="2" fill="none"></path></g><g transform="translate(421.1100311279297 352) rotate(0 48.88996887207031 25)"><text x="48.88996887207031" y="17.52" font-family="Virgil, Segoe UI Emoji" font-size="20px" fill="#1e1e1e" text-anchor="middle" style="white-space: pre;" direction="ltr" dominant-baseline="alphabetic">Intel NUC</text><text x="48.88996887207031" y="42.519999999999996" font-family="Virgil, Segoe UI Emoji" font-size="20px" fill="#1e1e1e" text-anchor="middle" style="white-space: pre;" direction="ltr" dominant-baseline="alphabetic">Server</text></g><g stroke-linecap="round" transform="translate(672.5 160.5) rotate(0 64.5 226)"><path d="M32 0 C54.67 2.35, 68.06 1.91, 97 0 C116.59 1.86, 128.58 14.17, 129 32 C130.14 180.89, 133.41 331.8, 129 420 C131.03 444.42, 117.25 454.1, 97 452 C74.06 449.45, 53.88 452.96, 32 452 C8.64 453.54, -1.33 444.92, 0 420 C-4.59 309.24, -4.93 199.07, 0 32 C0.1 9.09, 8.7 1.6, 32 0" stroke="none" stroke-width="0" fill="#ffc9c9"></path><path d="M32 0 C52.43 -1.6, 76.79 -1.16, 97 0 M32 0 C51.03 0.16, 70.34 -0.88, 97 0 M97 0 C118.57 -0.33, 128.29 10.83, 129 32 M97 0 C116.22 -1.81, 130 12.51, 129 32 M129 32 C128.5 163.68, 127.28 294.45, 129 420 M129 32 C126.97 131.57, 126.53 231.43, 129 420 M129 420 C127.12 441.43, 120.13 452.69, 97 452 M129 420 C127.97 442.74, 117.58 452.68, 97 452 M97 452 C79.03 453.7, 57.21 452.63, 32 452 M97 452 C79.63 452.17, 64.45 451.43, 32 452 M32 452 C9.96 450.76, 0.58 439.89, 0 420 M32 452 C12.47 454.14, 0.54 443.33, 0 420 M0 420 C1.5 331.3, 1.33 242.03, 0 32 M0 420 C-1.62 301.65, -1.11 182.56, 0 32 M0 32 C-0.9 10.6, 11.9 0.32, 32 0 M0 32 C1.47 9.92, 12.95 -1.6, 32 0" stroke="#1e1e1e" stroke-width="2" fill="none"></path></g><g transform="translate(680.4000549316406 361.5) rotate(0 56.599945068359375 25)"><text x="56.599945068359375" y="17.52" font-family="Virgil, Segoe UI Emoji" font-size="20px" fill="#1e1e1e" text-anchor="middle" style="white-space: pre;" direction="ltr" dominant-baseline="alphabetic">Laptop</text><text x="56.599945068359375" y="42.519999999999996" font-family="Virgil, Segoe UI Emoji" font-size="20px" fill="#1e1e1e" text-anchor="middle" style="white-space: pre;" direction="ltr" dominant-baseline="alphabetic">workstation</text></g><g stroke-linecap="round" transform="translate(538.5 141.5) rotate(0 63.5 236.5)"><path d="M31.75 0 C44.47 2.7, 61.31 0.48, 95.25 0 C114.71 -1.94, 128.01 7.82, 127 31.75 C124.05 146.23, 125.59 264.74, 127 441.25 C126.59 463.25, 119.73 472.31, 95.25 473 C78.28 471.24, 67.67 470.3, 31.75 473 C12.26 475.18, 2.36 462.89, 0 441.25 C-0.42 356.93, 2.41 272.41, 0 31.75 C1.86 8.51, 10.91 -0.58, 31.75 0" stroke="none" stroke-width="0" fill="#ffc9c9"></path><path d="M31.75 0 C52.37 -0.66, 75.55 -1.79, 95.25 0 M31.75 0 C44.5 -0.01, 59.48 0.48, 95.25 0 M95.25 0 C116.98 -1.82, 128.69 9.75, 127 31.75 M95.25 0 C115.88 -0.99, 127.6 10.08, 127 31.75 M127 31.75 C129.28 133.36, 128.59 235.03, 127 441.25 M127 31.75 C126.05 164.64, 125.45 298.39, 127 441.25 M127 441.25 C126 464.13, 116.69 472.65, 95.25 473 M127 441.25 C127.25 461.08, 114.17 474.16, 95.25 473 M95.25 473 C76.05 472.3, 58.94 473.85, 31.75 473 M95.25 473 C71.87 473.22, 49.28 472.99, 31.75 473 M31.75 473 C11.33 474.24, 1.21 462.34, 0 441.25 M31.75 473 C11.79 474.2, -0.12 463.55, 0 441.25 M0 441.25 C-1.83 338.22, -1 236.31, 0 31.75 M0 441.25 C-1.8 292.7, -2.04 144.74, 0 31.75 M0 31.75 C1.18 9.86, 12.19 1.3, 31.75 0 M0 31.75 C0.88 10.58, 8.65 0.91, 31.75 0" stroke="#1e1e1e" stroke-width="2" fill="none"></path></g><g transform="translate(571.150032043457 353) rotate(0 30.84996795654297 25)"><text x="30.84996795654297" y="17.52" font-family="Virgil, Segoe UI Emoji" font-size="20px" fill="#1e1e1e" text-anchor="middle" style="white-space: pre;" direction="ltr" dominant-baseline="alphabetic">NAS</text><text x="30.84996795654297" y="42.519999999999996" font-family="Virgil, Segoe UI Emoji" font-size="20px" fill="#1e1e1e" text-anchor="middle" style="white-space: pre;" direction="ltr" dominant-baseline="alphabetic">Server</text></g><g stroke-linecap="round" transform="translate(673 192) rotate(0 65 32.5)"><path d="M16.25 0 C51.29 -0.63, 90.65 -4.62, 113.75 0 C127.16 -3.48, 133.32 2.51, 130 16.25 C128.16 22.77, 134.05 31.16, 130 48.75 C132.75 62.22, 128 62.79, 113.75 65 C88.25 65.07, 68.55 66.95, 16.25 65 C4.02 67.04, 1.32 60.38, 0 48.75 C-2.13 42.67, -0.69 31.38, 0 16.25 C1.42 4.41, 5.23 2.95, 16.25 0" stroke="none" stroke-width="0" fill="#a5d8ff"></path><path d="M16.25 0 C36.12 -1.47, 55.28 -1.34, 113.75 0 M16.25 0 C42.32 0.98, 71.04 0.6, 113.75 0 M113.75 0 C126.5 -0.38, 129.78 5.74, 130 16.25 M113.75 0 C123.65 1.75, 128.65 7.2, 130 16.25 M130 16.25 C128.45 27.45, 129.68 39.76, 130 48.75 M130 16.25 C130.28 24.46, 129.39 32.1, 130 48.75 M130 48.75 C131.69 60.67, 126.24 65.39, 113.75 65 M130 48.75 C127.94 61.6, 124.65 63.31, 113.75 65 M113.75 65 C90.93 66.43, 70.55 63.73, 16.25 65 M113.75 65 C90.52 65.58, 69.27 65.28, 16.25 65 M16.25 65 C5.63 64.49, -1.99 60.21, 0 48.75 M16.25 65 C5.35 63.34, 0.43 59.61, 0 48.75 M0 48.75 C-1.08 41.22, 0.8 31.83, 0 16.25 M0 48.75 C-0.8 35.44, -0.07 24.46, 0 16.25 M0 16.25 C0.75 4.22, 6.52 0.56, 16.25 0 M0 16.25 C1.75 6.71, 7.34 -1.1, 16.25 0" stroke="#1e1e1e" stroke-width="2" fill="none"></path></g><g transform="translate(680.0300521850586 199.5) rotate(0 57.969947814941406 25)"><text x="57.969947814941406" y="17.52" font-family="Virgil, Segoe UI Emoji" font-size="20px" fill="#1e1e1e" text-anchor="middle" style="white-space: pre;" direction="ltr" dominant-baseline="alphabetic">Workstation</text><text x="57.969947814941406" y="42.519999999999996" font-family="Virgil, Segoe UI Emoji" font-size="20px" fill="#1e1e1e" text-anchor="middle" style="white-space: pre;" direction="ltr" dominant-baseline="alphabetic">role</text></g><g stroke-linecap="round" transform="translate(130 147) rotate(0 65 232)"><path d="M32 0 C54.44 1.3, 72.79 -4.28, 98 0 C119.54 -3.04, 132.14 11.69, 130 32 C130.16 151.91, 131.28 275.85, 130 432 C126.55 456.23, 116.28 463.54, 98 464 C83.3 464.96, 63.14 464.15, 32 464 C7.27 467.03, -0.62 453.57, 0 432 C1.05 286.05, 0.09 143.67, 0 32 C-0.45 9.66, 8.75 2.52, 32 0" stroke="none" stroke-width="0" fill="#ffc9c9"></path><path d="M32 0 C49.97 0.51, 69.11 -1.14, 98 0 M32 0 C51.29 -1.61, 71.29 -0.48, 98 0 M98 0 C121.23 1.85, 128.59 8.86, 130 32 M98 0 C121.15 0.88, 128.62 8.6, 130 32 M130 32 C130.99 126.86, 132.33 221.13, 130 432 M130 32 C130.16 152.29, 130.12 272.86, 130 432 M130 432 C128.31 454.85, 120.98 464.08, 98 464 M130 432 C128.55 453.96, 117.64 463.46, 98 464 M98 464 C75 463.53, 48.79 462.56, 32 464 M98 464 C84.12 463.23, 70.26 462.89, 32 464 M32 464 C11.53 462.12, 0.05 453.51, 0 432 M32 464 C12.9 463.93, 0.17 453.86, 0 432 M0 432 C-0.99 339.14, -0.85 246.39, 0 32 M0 432 C0.4 292.22, -0.17 151.92, 0 32 M0 32 C-0.02 9.65, 10.87 -1.67, 32 0 M0 32 C1.71 12.41, 12.63 0.42, 32 0" stroke="#1e1e1e" stroke-width="2" fill="none"></path></g><g transform="translate(159.02002716064453 354) rotate(0 35.97997283935547 25)"><text x="35.97997283935547" y="17.52" font-family="Virgil, Segoe UI Emoji" font-size="20px" fill="#1e1e1e" text-anchor="middle" style="white-space: pre;" direction="ltr" dominant-baseline="alphabetic">Rpi4 #1</text><text x="35.97997283935547" y="42.519999999999996" font-family="Virgil, Segoe UI Emoji" font-size="20px" fill="#1e1e1e" text-anchor="middle" style="white-space: pre;" direction="ltr" dominant-baseline="alphabetic">Server</text></g><g stroke-linecap="round" transform="translate(140 191) rotate(0 260 32.5)"><path d="M16.25 0 C152.21 2.48, 286.58 1.29, 503.75 0 C517.69 2.72, 522.06 6.48, 520 16.25 C520.31 25.2, 520.21 28.83, 520 48.75 C521.61 58.54, 515.67 64.38, 503.75 65 C383.92 68.21, 261.47 67.36, 16.25 65 C4.35 67.59, -1.39 56.7, 0 48.75 C-2.75 44.35, 1.84 30.91, 0 16.25 C-2.26 3.91, 4.45 1.34, 16.25 0" stroke="none" stroke-width="0" fill="#a5d8ff"></path><path d="M16.25 0 C194.79 2.03, 374.01 1.16, 503.75 0 M16.25 0 C154.19 0.04, 292.29 -0.03, 503.75 0 M503.75 0 C513.56 1, 519.65 5.64, 520 16.25 M503.75 0 C514.54 0.35, 521.45 4, 520 16.25 M520 16.25 C520.73 24.44, 519.7 33.69, 520 48.75 M520 16.25 C519.58 22.66, 520.22 31.5, 520 48.75 M520 48.75 C521.14 58.02, 516.1 65.65, 503.75 65 M520 48.75 C522.06 60.36, 512.41 63.05, 503.75 65 M503.75 65 C373.68 64.61, 241.7 65.47, 16.25 65 M503.75 65 C310.43 66.25, 117.24 66.07, 16.25 65 M16.25 65 C4.3 65.14, 1.44 60.29, 0 48.75 M16.25 65 C6.47 66.09, -0.16 61.11, 0 48.75 M0 48.75 C-0.67 39.35, 1.58 28.87, 0 16.25 M0 48.75 C-0.28 39.93, 0.13 30.86, 0 16.25 M0 16.25 C-0.61 7.22, 3.76 0.87, 16.25 0 M0 16.25 C-0.15 6.04, 6.08 0.37, 16.25 0" stroke="#1e1e1e" stroke-width="2" fill="none"></path></g><g transform="translate(346.2100524902344 211) rotate(0 53.789947509765625 12.5)"><text x="53.789947509765625" y="17.52" font-family="Virgil, Segoe UI Emoji" font-size="20px" fill="#1e1e1e" text-anchor="middle" style="white-space: pre;" direction="ltr" dominant-baseline="alphabetic">Server role</text></g><g stroke-linecap="round" transform="translate(142 265) rotate(0 123.5 31.5)"><path d="M15.75 0 C60.17 3.52, 108.05 2.74, 231.25 0 C243.2 1.63, 247.39 7.15, 247 15.75 C244.63 21.94, 243.92 34.71, 247 47.25 C248.52 59.27, 242.7 60.79, 231.25 63 C157.66 60.88, 86.22 62.75, 15.75 63 C7.66 60, -2.78 56.41, 0 47.25 C-0.66 35.55, 0.4 26, 0 15.75 C2.51 8.44, 7.14 -1.85, 15.75 0" stroke="none" stroke-width="0" fill="#b2f2bb"></path><path d="M15.75 0 C68.32 2.95, 123.62 -0.03, 231.25 0 M15.75 0 C92.99 0.53, 169.67 -0.22, 231.25 0 M231.25 0 C241.92 0.79, 246.95 4.78, 247 15.75 M231.25 0 C243.87 1.78, 245.3 7.51, 247 15.75 M247 15.75 C246.41 23.04, 247.99 30.27, 247 47.25 M247 15.75 C246.52 24.08, 247.6 34.06, 247 47.25 M247 47.25 C245.8 59.59, 241.29 62.84, 231.25 63 M247 47.25 C247.25 56.57, 241.1 61.15, 231.25 63 M231.25 63 C177.74 65.15, 121.98 63.87, 15.75 63 M231.25 63 C164.11 62.84, 98.94 61.59, 15.75 63 M15.75 63 C3.45 62.11, 0.37 58.79, 0 47.25 M15.75 63 C6.55 63.53, -0.76 57.96, 0 47.25 M0 47.25 C1.52 37.76, -0.19 26.26, 0 15.75 M0 47.25 C-0.96 36.22, -0.79 23.59, 0 15.75 M0 15.75 C-0.4 5.42, 4.38 1.7, 15.75 0 M0 15.75 C-1.38 4.63, 5.42 -0.5, 15.75 0" stroke="#1e1e1e" stroke-width="2" fill="none"></path></g><g transform="translate(160.58009338378906 284) rotate(0 104.91990661621094 12.5)"><text x="104.91990661621094" y="17.52" font-family="Virgil, Segoe UI Emoji" font-size="20px" fill="#1e1e1e" text-anchor="middle" style="white-space: pre;" direction="ltr" dominant-baseline="alphabetic">Rpi4 Hardware profile</text></g><g stroke-linecap="round" transform="translate(412 267.5) rotate(0 124 30)"><path d="M15 0 C88.15 1, 161.72 -0.17, 233 0 C241.4 0.71, 249.55 4.9, 248 15 C249.44 26.71, 246.16 35.21, 248 45 C245.83 55.64, 241.17 63.43, 233 60 C155.42 60.98, 79.46 60.23, 15 60 C3.33 60.64, -3.5 58.39, 0 45 C-2.03 32.5, -2.98 21.19, 0 15 C-1.5 6.66, 4.25 1.25, 15 0" stroke="none" stroke-width="0" fill="#b2f2bb"></path><path d="M15 0 C70.26 0.88, 123.24 -0.53, 233 0 M15 0 C98.61 0.45, 180.4 0.32, 233 0 M233 0 C243.49 0.38, 249.28 5.06, 248 15 M233 0 C242.25 -2.14, 246.17 4.81, 248 15 M248 15 C248.88 24.86, 248.38 35.46, 248 45 M248 15 C248.53 21.34, 247.68 29.11, 248 45 M248 45 C246.89 54.35, 242.07 60.82, 233 60 M248 45 C246.55 55.42, 240.72 62.17, 233 60 M233 60 C181.96 59.48, 132.48 59.95, 15 60 M233 60 C146.65 58.83, 61.97 59.94, 15 60 M15 60 C5.71 61.83, 1.56 54.19, 0 45 M15 60 C3.55 59.28, 0.5 54.18, 0 45 M0 45 C-1.14 38.23, 1.48 30.67, 0 15 M0 45 C1.02 35.03, -0.5 25.67, 0 15 M0 15 C-0.78 5.61, 3.4 -1.86, 15 0 M0 15 C1.47 3.16, 4.64 1.98, 15 0" stroke="#1e1e1e" stroke-width="2" fill="none"></path></g><g transform="translate(427.51009368896484 285) rotate(0 108.48990631103516 12.5)"><text x="108.48990631103516" y="17.52" font-family="Virgil, Segoe UI Emoji" font-size="20px" fill="#1e1e1e" text-anchor="middle" style="white-space: pre;" direction="ltr" dominant-baseline="alphabetic">Intel Hardware profile</text></g><g stroke-linecap="round" transform="translate(677 270.5) rotate(0 60.5 42.5)"><path d="M21.25 0 C39.04 1.63, 60.96 -0.05, 99.75 0 C117.12 1.69, 123.26 9.28, 121 21.25 C123.5 31.02, 118.9 37.24, 121 63.75 C124.47 75.67, 114.15 82.13, 99.75 85 C74.05 85.69, 53.94 82.9, 21.25 85 C9.87 87.74, 1.52 77.52, 0 63.75 C-3.16 51.93, -1.43 48.15, 0 21.25 C0.15 9.27, 5.37 2.46, 21.25 0" stroke="none" stroke-width="0" fill="#b2f2bb"></path><path d="M21.25 0 C42.88 -0.01, 65.81 0.9, 99.75 0 M21.25 0 C51.92 1.24, 83.94 0.7, 99.75 0 M99.75 0 C113.13 0.07, 122.51 5.43, 121 21.25 M99.75 0 C112.41 0.89, 118.74 5.47, 121 21.25 M121 21.25 C121.15 36.68, 119.54 48.62, 121 63.75 M121 21.25 C119.76 31.5, 120.23 43.14, 121 63.75 M121 63.75 C122.73 76.72, 113.26 83.12, 99.75 85 M121 63.75 C120.28 79.43, 114.91 84.75, 99.75 85 M99.75 85 C77.97 83.57, 55.52 85.08, 21.25 85 M99.75 85 C70.52 84.93, 40.23 84.58, 21.25 85 M21.25 85 C8.48 85.84, 0.53 79.24, 0 63.75 M21.25 85 C5.98 86.48, -2.15 77.82, 0 63.75 M0 63.75 C1.18 53.22, -0.62 42.02, 0 21.25 M0 63.75 C-0.19 49.3, 0.12 36.67, 0 21.25 M0 21.25 C0.84 6.5, 5.11 -0.69, 21.25 0 M0 21.25 C-1.04 4.84, 9.12 -2.02, 21.25 0" stroke="#1e1e1e" stroke-width="2" fill="none"></path></g><g transform="translate(687.8000335693359 275.5) rotate(0 49.69996643066406 37.5)"><text x="49.69996643066406" y="17.52" font-family="Virgil, Segoe UI Emoji" font-size="20px" fill="#1e1e1e" text-anchor="middle" style="white-space: pre;" direction="ltr" dominant-baseline="alphabetic">AMD </text><text x="49.69996643066406" y="42.519999999999996" font-family="Virgil, Segoe UI Emoji" font-size="20px" fill="#1e1e1e" text-anchor="middle" style="white-space: pre;" direction="ltr" dominant-baseline="alphabetic">Hardware </text><text x="49.69996643066406" y="67.52" font-family="Virgil, Segoe UI Emoji" font-size="20px" fill="#1e1e1e" text-anchor="middle" style="white-space: pre;" direction="ltr" dominant-baseline="alphabetic">profile</text></g><g stroke-linecap="round" transform="translate(143 136) rotate(0 330 22.5)"><path d="M11.25 0 C261.97 -1.63, 512.61 -1.55, 648.75 0 C655.69 1.82, 660.01 1.3, 660 11.25 C657.61 14.24, 658.21 22.08, 660 33.75 C659.14 38.93, 659.39 44.48, 648.75 45 C447.06 46.9, 244.05 48.68, 11.25 45 C7.33 45.07, 1.64 39.76, 0 33.75 C2.85 22.86, 0.42 18.83, 0 11.25 C1.16 6.24, 0.57 -1.13, 11.25 0" stroke="none" stroke-width="0" fill="#ffc9c9"></path><path d="M11.25 0 C240.53 -1.38, 468.53 -1.8, 648.75 0 M11.25 0 C209.17 -0.79, 406.39 -1.3, 648.75 0 M648.75 0 C658.03 1.15, 659.43 3.8, 660 11.25 M648.75 0 C657.01 1.24, 660.87 1.74, 660 11.25 M660 11.25 C660.66 19.71, 659.69 23.88, 660 33.75 M660 11.25 C659.47 18.26, 660.84 22.91, 660 33.75 M660 33.75 C660.34 39.3, 655.14 43.37, 648.75 45 M660 33.75 C658.16 40.83, 655.16 46.04, 648.75 45 M648.75 45 C414.9 44, 179.41 44.93, 11.25 45 M648.75 45 C507.8 47.29, 366.57 46.98, 11.25 45 M11.25 45 C4.11 46.18, 0.15 42.49, 0 33.75 M11.25 45 C3.82 43.36, -0.51 42.29, 0 33.75 M0 33.75 C0.08 23.57, -1.52 17.3, 0 11.25 M0 33.75 C-0.56 28.97, 0.05 23.2, 0 11.25 M0 11.25 C0.36 5.08, 3.88 -0.55, 11.25 0 M0 11.25 C-1 4.4, 1.99 0.79, 11.25 0" stroke="#1e1e1e" stroke-width="2" fill="none"></path></g><g transform="translate(407.6400604248047 146) rotate(0 65.35993957519531 12.5)"><text x="65.35993957519531" y="17.52" font-family="Virgil, Segoe UI Emoji" font-size="20px" fill="#1e1e1e" text-anchor="middle" style="white-space: pre;" direction="ltr" dominant-baseline="alphabetic">Global profile</text></g><g transform="translate(848 144) rotate(0 142.0698699951172 12.5)"><text x="0" y="17.52" font-family="Virgil, Segoe UI Emoji" font-size="20px" fill="#1e1e1e" text-anchor="start" style="white-space: pre;" direction="ltr" dominant-baseline="alphabetic">Timezones, NTP, nix settings</text></g><g transform="translate(851 203) rotate(0 170.0598602294922 12.5)"><text x="0" y="17.52" font-family="Virgil, Segoe UI Emoji" font-size="20px" fill="#1e1e1e" text-anchor="start" style="white-space: pre;" direction="ltr" dominant-baseline="alphabetic">GUI, monitoring, ssh, virtualization</text></g><g transform="translate(847 279) rotate(0 133.69992065429688 12.5)"><text x="0" y="17.52" font-family="Virgil, Segoe UI Emoji" font-size="20px" fill="#1e1e1e" text-anchor="start" style="white-space: pre;" direction="ltr" dominant-baseline="alphabetic">CPU, BIOS, EEPROM, Grub</text></g><g transform="translate(853 450) rotate(0 121.2298812866211 12.5)"><text x="0" y="17.52" font-family="Virgil, Segoe UI Emoji" font-size="20px" fill="#1e1e1e" text-anchor="start" style="white-space: pre;" direction="ltr" dominant-baseline="alphabetic">Machine specific settings</text></g><g stroke-linecap="round"><g transform="translate(47 128) rotate(0 1.5 217)"><path d="M-0.87 -1.15 C-0.29 71.05, 2.21 361.58, 2.8 434.05 M0.88 0.87 C1.34 73.2, 1.6 363.29, 1.75 435.61" stroke="#1e1e1e" stroke-width="2" fill="none"></path></g><g transform="translate(47 128) rotate(0 1.5 217)"><path d="M-6.84 412.13 C-6.51 417.53, -2.44 423.01, 1.75 435.61 M-6.84 412.13 C-4.65 419.37, -3.09 424.09, 1.75 435.61" stroke="#1e1e1e" stroke-width="2" fill="none"></path></g><g transform="translate(47 128) rotate(0 1.5 217)"><path d="M10.26 412.1 C6.46 417.39, 6.38 422.87, 1.75 435.61 M10.26 412.1 C7.83 419.42, 4.77 424.14, 1.75 435.61" stroke="#1e1e1e" stroke-width="2" fill="none"></path></g></g><mask></mask><g transform="translate(15 94) rotate(0 29.46997833251953 12.5)"><text x="0" y="17.52" font-family="Virgil, Segoe UI Emoji" font-size="20px" fill="#1e1e1e" text-anchor="start" style="white-space: pre;" direction="ltr" dominant-baseline="alphabetic">Broad</text></g><g transform="translate(30 573) rotate(0 18.069984436035156 12.5)"><text x="0" y="17.52" font-family="Virgil, Segoe UI Emoji" font-size="20px" fill="#1e1e1e" text-anchor="start" style="white-space: pre;" direction="ltr" dominant-baseline="alphabetic">Fine</text></g><g transform="translate(10 41) rotate(0 37.855979919433594 17.5)"><text x="0" y="24.528" font-family="Virgil, Segoe UI Emoji" font-size="28px" fill="#1e1e1e" text-anchor="start" style="white-space: pre;" direction="ltr" dominant-baseline="alphabetic">Scope</text></g><g transform="translate(157 472.5) rotate(0 33.28797912597656 30)"><text x="0" y="14.016" font-family="Virgil, Segoe UI Emoji" font-size="16px" fill="#1e1e1e" text-anchor="start" style="white-space: pre;" direction="ltr" dominant-baseline="alphabetic">Services:</text><text x="0" y="34.016" font-family="Virgil, Segoe UI Emoji" font-size="16px" fill="#1e1e1e" text-anchor="start" style="white-space: pre;" direction="ltr" dominant-baseline="alphabetic">- DNS</text><text x="0" y="54.016" font-family="Virgil, Segoe UI Emoji" font-size="16px" fill="#1e1e1e" text-anchor="start" style="white-space: pre;" direction="ltr" dominant-baseline="alphabetic">- NTP</text></g><g transform="translate(292.71202087402344 474) rotate(0 33.28797912597656 30)"><text x="0" y="14.016" font-family="Virgil, Segoe UI Emoji" font-size="16px" fill="#1e1e1e" text-anchor="start" style="white-space: pre;" direction="ltr" dominant-baseline="alphabetic">Services:</text><text x="0" y="34.016" font-family="Virgil, Segoe UI Emoji" font-size="16px" fill="#1e1e1e" text-anchor="start" style="white-space: pre;" direction="ltr" dominant-baseline="alphabetic">- DNS</text><text x="0" y="54.016" font-family="Virgil, Segoe UI Emoji" font-size="16px" fill="#1e1e1e" text-anchor="start" style="white-space: pre;" direction="ltr" dominant-baseline="alphabetic">- NTP</text></g><g transform="translate(413.71202087402344 470) rotate(0 66.99994659423828 40)"><text x="0" y="14.016" font-family="Virgil, Segoe UI Emoji" font-size="16px" fill="#1e1e1e" text-anchor="start" style="white-space: pre;" direction="ltr" dominant-baseline="alphabetic">Services:</text><text x="0" y="34.016" font-family="Virgil, Segoe UI Emoji" font-size="16px" fill="#1e1e1e" text-anchor="start" style="white-space: pre;" direction="ltr" dominant-baseline="alphabetic">- Paperless</text><text x="0" y="54.016" font-family="Virgil, Segoe UI Emoji" font-size="16px" fill="#1e1e1e" text-anchor="start" style="white-space: pre;" direction="ltr" dominant-baseline="alphabetic">- Immich</text><text x="0" y="74.016" font-family="Virgil, Segoe UI Emoji" font-size="16px" fill="#1e1e1e" text-anchor="start" style="white-space: pre;" direction="ltr" dominant-baseline="alphabetic">- Home-Assistant</text></g><g transform="translate(557.7120208740234 469) rotate(0 50.679962158203125 50)"><text x="0" y="14.016" font-family="Virgil, Segoe UI Emoji" font-size="16px" fill="#1e1e1e" text-anchor="start" style="white-space: pre;" direction="ltr" dominant-baseline="alphabetic">Services:</text><text x="0" y="34.016" font-family="Virgil, Segoe UI Emoji" font-size="16px" fill="#1e1e1e" text-anchor="start" style="white-space: pre;" direction="ltr" dominant-baseline="alphabetic">- ZFS</text><text x="0" y="54.016" font-family="Virgil, Segoe UI Emoji" font-size="16px" fill="#1e1e1e" text-anchor="start" style="white-space: pre;" direction="ltr" dominant-baseline="alphabetic">- SMB</text><text x="0" y="74.016" font-family="Virgil, Segoe UI Emoji" font-size="16px" fill="#1e1e1e" text-anchor="start" style="white-space: pre;" direction="ltr" dominant-baseline="alphabetic">- NFS</text><text x="0" y="94.016" font-family="Virgil, Segoe UI Emoji" font-size="16px" fill="#1e1e1e" text-anchor="start" style="white-space: pre;" direction="ltr" dominant-baseline="alphabetic">- File sharing</text></g><g transform="translate(690.7120208740234 468) rotate(0 42.63996124267578 20)"><text x="0" y="14.016" font-family="Virgil, Segoe UI Emoji" font-size="16px" fill="#1e1e1e" text-anchor="start" style="white-space: pre;" direction="ltr" dominant-baseline="alphabetic">Services:</text><text x="0" y="34.016" font-family="Virgil, Segoe UI Emoji" font-size="16px" fill="#1e1e1e" text-anchor="start" style="white-space: pre;" direction="ltr" dominant-baseline="alphabetic">- Programs</text></g></svg>